<svg xmlns="http://www.w3.org/2000/svg" preserveAspectRatio="xMinYMin meet" viewBox="0 0 77.25 44">
    <g id="vamlogo" fill="#b89b5d">
        <path d="m 35.905652,1.6104206 c 0.534804,-0.3146253 1.235387,-0.4652266 2.652558,-0.541486 0.200399,-0.014751 0.356679,-0.12095295 0.356679,-0.32377052 0,-0.21343787 -0.164732,-0.33099832 -0.319271,-0.33099832 h -8.596514 c -0.200959,0 -0.433278,0.0604767 -0.433278,0.32981831 0,0.13717838 0.05662,0.29043473 0.320732,0.32539303 0.199705,0.026551 0.656716,0.054576 1.166474,0.089977 1.229487,0.085552 1.701898,0.2141754 2.054873,0.7223256 0.331618,0.4774693 0.153566,1.325763 -0.220046,2.3346881 C 32.515501,5.221753 22.620719,30.58855 22.620719,30.58855 h -0.0397 C 22.463022,30.218315 14.624087,5.5734018 14.284239,4.5084253 13.944243,3.4441862 13.807803,2.6948676 13.983184,2.2836274 c 0.320083,-0.7506462 0.957151,-1.0143828 2.547241,-1.1238306 0.218379,-0.01475 0.319685,-0.0236 0.51877,-0.039826 0.209146,-0.017701 0.327871,-0.20148991 0.282986,-0.4259905 -0.04685,-0.23379334 -0.182919,-0.28246955 -0.439251,-0.28246955 -0.117265,0 -16.48205987,0.001177 -16.55581197,0.001177 -0.15234169,0 -0.31944828,0.10177756 -0.33570365,0.31197029 -0.0129838,0.16653167 0.0650497,0.26019653 0.16529228,0.30562756 0.0972325,0.044251 0.38802397,0.082602 0.93353584,0.120953 1.2116399,0.085552 1.6030703,0.188657 2.051039,0.4028322 0.9087407,0.4345458 1.5307932,1.5992349 1.8411409,2.528508 0.3103182,0.9291257 13.1706026,39.5944105 13.2113136,39.7124135 0.06237,0.180839 0.323918,0.18733 0.401992,0 0.07818,-0.18733 16.018898,-40.1991756 16.24753,-40.7567394 0.196179,-0.4786495 0.511837,-1.1126203 1.051701,-1.4297532" />
        <path d="m 55.50004,40.302334 c -0.351265,-0.109152 -0.569911,0.109154 -0.827422,0.718343 -0.298946,0.706395 -0.943242,0.897855 -1.562802,0.897855 -1.158641,0 -2.3251,-1.327238 -3.191537,-2.677929 -0.0476,-0.07375 -0.539376,-0.845491 -1.278399,-2.005165 1.88082,-2.61406 2.953171,-5.673876 3.444948,-7.694233 0.1696,-0.696513 0.419751,-1.749394 0.794396,-2.186448 0.519183,-0.605503 1.086674,-0.780294 1.906338,-0.862158 0.355631,-0.0354 0.51343,-0.0531 0.646803,-0.09145 0.185132,-0.05458 0.238779,-0.230105 0.221979,-0.358139 -0.02548,-0.19264 -0.16224,-0.277455 -0.307679,-0.277455 -0.145305,0 -6.963353,-0.0012 -7.163663,-0.0012 -0.238292,0 -0.346398,0.153404 -0.346398,0.337489 0,0.172727 0.11318,0.269932 0.276599,0.309463 0.11318,0.02655 0.315526,0.0472 0.452778,0.05458 0.897796,0.0472 1.553803,0.148241 1.963126,0.42068 0.660197,0.439119 0.595945,1.124569 0.470758,2.058857 -0.279785,2.086439 -1.339333,5.162628 -2.880304,7.474306 -2.803455,-4.399445 -7.890415,-12.384113 -7.890415,-12.384113 0,0 2.10591,-1.093887 3.535812,-1.915926 1.395119,-0.802273 3.529762,-2.414783 3.529762,-5.051705 0,-1.563687 -0.895155,-2.778379 -2.120217,-3.588322 -1.259593,-0.832806 -3.146106,-1.498933 -5.287564,-1.498933 -2.66967,0 -5.523866,0.98031 -7.070295,3.433591 -1.493327,2.368909 -1.107693,5.82846 0.649503,8.72145 0.474785,0.781622 0.995709,1.571504 0.995709,1.571504 -0.624531,0.223763 -1.399559,0.559776 -2.053398,0.856996 -3.551889,1.649091 -6.566273,4.728377 -6.566273,8.954505 0,4.700943 3.496132,8.481462 9.940714,8.481462 3.514127,0 6.40992,-1.11498 8.718205,-2.764071 1.064121,1.443176 3.033266,2.526147 5.863566,2.526147 2.685304,0 4.81157,-1.563243 5.361906,-2.84328 0.09388,-0.218454 0.03699,-0.534554 -0.226492,-0.616714 z M 36.877702,13.915403 c 0.555129,-0.797995 1.385412,-1.127666 2.498121,-1.127666 1.511766,0 3.360577,1.411315 3.360577,4.973382 0,2.239252 -1.131649,4.390593 -2.951254,5.588176 0,0 -1.569291,-2.424223 -2.468769,-4.116679 -0.786194,-1.482413 -1.510438,-3.77462 -0.438086,-5.317361 z m -5.495988,19.084025 c 0,-2.123316 0.744569,-4.890484 3.461469,-6.633978 h 0.0032 -0.0032 c 0.0028,0 0.0054,0.01475 0.0082,0.01475 0.0044,0 0.01047,0.01622 0.01852,0.02803 5.925371,9.140065 6.255337,9.665916 9.135936,14.086601 -1.266261,0.841213 -2.670407,1.346266 -4.074199,1.346266 -4.79918,0 -8.550051,-4.453136 -8.550051,-8.840337" />
        <path d="m 76.916098,43.295857 c -0.07079,-0.01475 -0.305318,-0.03688 -0.67241,-0.06638 C 74.446503,43.084926 72.482639,42.71838 71.314852,39.690867 70.941668,38.720293 56.183926,0.46816512 56.088048,0.21445882 55.977421,-0.07774595 55.700114,-0.06992823 55.602762,0.22920964 55.520162,0.47524575 51.608362,12.06992 51.608362,12.06992 l 10.179376,28.012422 c 0.178539,0.520098 0.352371,1.034886 0.352371,1.43049 0,0.500776 -0.337724,1.074564 -0.907501,1.343759 -0.449518,0.212257 -1.305393,0.325097 -1.964012,0.379969 -0.20742,0.0177 -0.384645,0.0354 -0.572063,0.06195 -0.206166,0.0295 -0.289078,0.206947 -0.289078,0.363154 0,0.190575 0.143094,0.328491 0.352372,0.328491 h 18.179828 c 0.152665,0 0.314345,-0.141604 0.314345,-0.306661 0,-0.281142 -0.16932,-0.360204 -0.337253,-0.387787" />
    </g>
</svg>